<svg xmlns="http://www.w3.org/2000/svg" viewBox="0 0 533.81 106.12"><defs><style>.cls-1{fill:#a0e4dd;}.cls-2{fill:#2ec4b6;}.cls-3{fill:#2e3131;}</style></defs><title>logo</title><g id="Lager_2" data-name="Lager 2"><g id="Lager_1-2" data-name="Lager 1"><path class="cls-1" d="M104.32.12a35.19,35.19,0,0,0-29,15.23s-2.15,3.21-5.54,3.21-5.54-3.21-5.54-3.21a35.18,35.18,0,0,0-61.68,33c6.8,21,29.84,44.68,47.86,57.77a118.78,118.78,0,0,0,0-21A9.52,9.52,0,0,0,41.07,81l1-1.26-3.46-.2L41,76.58H38.57l2-2.41-5.14-.94,2.1-1.57L35.85,70a6,6,0,0,0,4.09-6.39c-.23-3.72-.18-7.89,1.18-11.57.52-1.4-1.39-20.48,0-22.58,1.54-2.36,15.19,10.8,15.19,10.8s2.83-3,13.93-3,13.93,3,13.93,3,13.62-13.12,15.16-10.8a4.55,4.55,0,0,1,.39,1.74L124.45,6.45A35,35,0,0,0,104.32.12Z"/><path class="cls-2" d="M139.44,33.27v-.63a13.43,13.43,0,0,0-.13-1.41l-.09-.69c-.07-.46-.14-.92-.22-1.37a3.22,3.22,0,0,0-.11-.62c-.11-.57-.23-1.13-.37-1.68a1.14,1.14,0,0,0-.06-.25c-.16-.66-.35-1.3-.55-1.94,0-.11-.07-.21-.11-.32-.17-.53-.35-1-.55-1.56l-.18-.47c-.19-.48-.39-.95-.6-1.42-.07-.14-.13-.27-.19-.41-.25-.55-.52-1.09-.8-1.62l-.06-.12a34.46,34.46,0,0,0-2.13-3.48l-.11-.15c-.35-.5-.72-1-1.1-1.48l-.13-.17a35.39,35.39,0,0,0-5.77-5.77h0c-.54-.42-1.08-.83-1.64-1.22h0L99.72,31.18c.4,4.3-.43,14.68-.51,19v1.68a.48.48,0,0,0,0,.17c1.36,3.68,1.41,7.85,1.18,11.57A6,6,0,0,0,104.48,70l-1.68,1.68,2.1,1.57-5.13.94,2,2.41H99.43l2.41,2.94-3.45.2L99.33,81A9.54,9.54,0,0,0,90,85.12,120.63,120.63,0,0,0,90,105.59c17.89-13.2,40.37-36.46,47.06-57.24a35.07,35.07,0,0,0,2.5-13C139.51,34.63,139.48,34,139.44,33.27Z"/><path class="cls-3" d="M187.43,75.08a20.42,20.42,0,0,1-8.3-8.71,28.86,28.86,0,0,1-2.9-13.29,28.62,28.62,0,0,1,2.9-13.24,20.52,20.52,0,0,1,8.3-8.68,27.21,27.21,0,0,1,28.22,1.94,5.08,5.08,0,0,1,1.46,1.66,4.68,4.68,0,0,1,.41,2.07,4.83,4.83,0,0,1-1,3.08,3,3,0,0,1-2.46,1.28,5.38,5.38,0,0,1-1.69-.24,6.72,6.72,0,0,1-1.63-.87,23,23,0,0,0-5.12-2.59,15.66,15.66,0,0,0-5-.8q-6.65,0-10,4.12c-2.24,2.74-3.36,6.84-3.36,12.27q0,16.47,13.36,16.47a14.93,14.93,0,0,0,4.84-.79,31.46,31.46,0,0,0,5.32-2.6,10.28,10.28,0,0,1,1.73-.87,5.11,5.11,0,0,1,1.59-.24,3,3,0,0,1,2.46,1.28,4.83,4.83,0,0,1,1,3.08,4.54,4.54,0,0,1-.45,2.11,5.07,5.07,0,0,1-1.42,1.63,27.23,27.23,0,0,1-28.22,1.93Z"/><path class="cls-3" d="M272.82,73.15a4.22,4.22,0,0,1-1.55,3.28,5.3,5.3,0,0,1-3.57,1.35,4.65,4.65,0,0,1-2.49-.73,4.55,4.55,0,0,1-1.79-2.18l-3.67-8.16H236.3l-3.66,8.16a4.69,4.69,0,0,1-1.77,2.18,4.55,4.55,0,0,1-2.52.73,5.41,5.41,0,0,1-3.6-1.35,4.16,4.16,0,0,1-1.59-3.28,5.54,5.54,0,0,1,.55-2.22l18.68-39.22a5.33,5.33,0,0,1,2.28-2.52,6.54,6.54,0,0,1,6.57,0,6.07,6.07,0,0,1,2.35,2.49l18.68,39.22A5.54,5.54,0,0,1,272.82,73.15ZM240,58.55h16.11l-8-18Z"/><path class="cls-3" d="M287,76.39a5.14,5.14,0,0,1-1.49-3.87v-35h-11.2c-3.42,0-5.12-1.49-5.12-4.43s1.7-4.36,5.12-4.36h33.2q5.12,0,5.12,4.36c0,2.94-1.71,4.43-5.12,4.43H296.3v35a5.2,5.2,0,0,1-1.45,3.87,6,6,0,0,1-7.85,0Z"/><path class="cls-3" d="M345.34,76.84a21.13,21.13,0,0,1-7.67-3.63,4.76,4.76,0,0,1-.87-6.84,3.12,3.12,0,0,1,2.46-1.32,5,5,0,0,1,1.48.24,9.43,9.43,0,0,1,1.77.87,23.13,23.13,0,0,0,6,2.73,24.39,24.39,0,0,0,6.71.87q4.57,0,7-1.53a4.85,4.85,0,0,0,2.42-4.36,3.92,3.92,0,0,0-2.25-3.45,28.89,28.89,0,0,0-8-2.5,43.86,43.86,0,0,1-10.27-3.18,13.23,13.23,0,0,1-5.6-4.63,12.18,12.18,0,0,1-1.76-6.71,13.11,13.11,0,0,1,2.52-7.85,16.63,16.63,0,0,1,7-5.46,24.51,24.51,0,0,1,10.06-2q9.82,0,16.19,4.92A5.51,5.51,0,0,1,374,34.72a4.54,4.54,0,0,1,.45,2.11,4.66,4.66,0,0,1-1.07,3,3.12,3.12,0,0,1-2.45,1.32,4.64,4.64,0,0,1-1.42-.21,10.2,10.2,0,0,1-1.84-.9,29.74,29.74,0,0,0-5.22-2.7,17.58,17.58,0,0,0-6-.9,11.81,11.81,0,0,0-6.64,1.63,5.09,5.09,0,0,0-2.42,4.46,4,4,0,0,0,.93,2.73,7.72,7.72,0,0,0,3.11,1.91,48.48,48.48,0,0,0,6.2,1.73Q367,51,371.11,54.26a10.77,10.77,0,0,1,4.11,8.92A13,13,0,0,1,372.77,71a15.87,15.87,0,0,1-6.92,5.26,26.68,26.68,0,0,1-10.34,1.87A38.38,38.38,0,0,1,345.34,76.84Z"/><path class="cls-3" d="M426.65,29.85a5.25,5.25,0,0,1,1.45,3.87v38.8a5.38,5.38,0,0,1-1.45,3.91,5.18,5.18,0,0,1-3.88,1.49,5.13,5.13,0,0,1-3.84-1.45,5.44,5.44,0,0,1-1.41-4V57H395V72.52a5.34,5.34,0,0,1-1.45,3.91,5.09,5.09,0,0,1-3.8,1.49,5.24,5.24,0,0,1-3.88-1.45,5.38,5.38,0,0,1-1.45-4V33.72a5,5,0,0,1,5.33-5.32,5.13,5.13,0,0,1,3.84,1.45A5.31,5.31,0,0,1,395,33.72V48.45h22.49V33.72a5.31,5.31,0,0,1,1.41-3.87,5.13,5.13,0,0,1,3.84-1.45A5.24,5.24,0,0,1,426.65,29.85Z"/><path class="cls-3" d="M448.81,75.05a20.84,20.84,0,0,1-8.27-8.72,28.63,28.63,0,0,1-2.9-13.25,28.62,28.62,0,0,1,2.9-13.24,20.57,20.57,0,0,1,8.27-8.68,27.63,27.63,0,0,1,25.24,0,20.57,20.57,0,0,1,8.27,8.68,28.5,28.5,0,0,1,2.9,13.24,28.51,28.51,0,0,1-2.9,13.25,20.84,20.84,0,0,1-8.27,8.72,27.39,27.39,0,0,1-25.24,0ZM471,65.47q3.5-4.29,3.49-12.39t-3.45-12.34a11.72,11.72,0,0,0-9.62-4.26,11.6,11.6,0,0,0-9.58,4.26q-3.42,4.26-3.42,12.34t3.45,12.39a12.81,12.81,0,0,0,19.13,0Z"/><path class="cls-3" d="M496.05,76.47a5.35,5.35,0,0,1-1.46-4V33.79a4.58,4.58,0,0,1,5.05-5.05H517q7.95,0,12.38,4T533.81,44q0,7.2-4.42,11.21t-12.38,4H505.39V72.52a5.59,5.59,0,0,1-9.34,4ZM523.72,44q0-7.06-8.1-7.06H505.39V51h10.23Q523.72,51,523.72,44Z"/></g></g></svg>