<svg xmlns="http://www.w3.org/2000/svg" viewBox="0 0 502.91 106"><defs><style>.cls-1{isolation:isolate;}.cls-2{fill:#a0e4dd;}.cls-2,.cls-3{mix-blend-mode:multiply;}.cls-3{fill:#2ec4b6;}.cls-4{fill:#2e3131;}</style></defs><title>logo_1</title><g class="cls-1"><g id="Lager_2" data-name="Lager 2"><g id="Objects"><path class="cls-2" d="M104.25,0a35.18,35.18,0,0,0-29,15.23s-2.15,3.21-5.54,3.21-5.54-3.21-5.54-3.21a35.18,35.18,0,0,0-61.68,33C9.29,69.26,32.33,92.91,50.35,106a119.37,119.37,0,0,0,0-21A9.51,9.51,0,0,0,41,80.86L42,79.6l-3.46-.2,2.41-2.94H38.5l2-2.41-5.14-.94,2.1-1.57-1.68-1.68a6,6,0,0,0,4.09-6.39c-.23-3.72-.18-7.89,1.18-11.57.52-1.4-1.39-20.48,0-22.58,1.54-2.36,15.19,10.8,15.19,10.8s2.83-3,13.93-3,13.93,3,13.93,3S97.72,27,99.26,29.32a4.54,4.54,0,0,1,.39,1.74L124.38,6.33A35,35,0,0,0,104.25,0Z"/><path class="cls-3" d="M139.37,33.15c0-.21,0-.42,0-.63,0-.47-.08-.94-.13-1.41l-.09-.69c-.07-.46-.14-.92-.22-1.37,0-.21-.07-.42-.11-.62-.11-.57-.23-1.13-.37-1.68a1.83,1.83,0,0,0-.06-.25c-.16-.66-.35-1.3-.55-1.94a3,3,0,0,0-.11-.32c-.17-.53-.35-1-.55-1.56l-.18-.47c-.19-.48-.39-.95-.6-1.42-.07-.14-.13-.27-.19-.41-.25-.55-.52-1.09-.8-1.62l-.06-.12a35.93,35.93,0,0,0-2.13-3.48l-.11-.15c-.35-.5-.72-1-1.1-1.48l-.13-.17a35.39,35.39,0,0,0-5.77-5.77l0,0c-.54-.42-1.08-.83-1.64-1.22h0L99.65,31.06c.4,4.3-.43,14.68-.51,19V51a.57.57,0,0,0,0,.13,1.85,1.85,0,0,0,0,.24v.11c0,.07,0,.13,0,.18s0,.05,0,.08a.61.61,0,0,0,0,.17c1.36,3.68,1.41,7.85,1.18,11.57a6,6,0,0,0,4.09,6.39l-1.68,1.68,2.1,1.57-5.13.94,2,2.41H99.36l2.41,2.94-3.45.2.94,1.26A9.51,9.51,0,0,0,89.94,85a119.85,119.85,0,0,0-.06,20.47c17.89-13.2,40.37-36.46,47.06-57.24a35,35,0,0,0,2.5-13C139.44,34.51,139.41,33.83,139.37,33.15Z"/><path class="cls-4" d="M200.78,71.38a25.14,25.14,0,0,0,6.27-.65A26.37,26.37,0,0,0,211.78,69l1.77,6.38a28.11,28.11,0,0,1-5.69,1.89,36.48,36.48,0,0,1-7.93.73,25.85,25.85,0,0,1-9.34-1.66,21.1,21.1,0,0,1-7.54-4.84,22.77,22.77,0,0,1-5-7.85A28.71,28.71,0,0,1,176.16,53a29.12,29.12,0,0,1,1.78-10.5,22.15,22.15,0,0,1,5-7.88,21.07,21.07,0,0,1,7.61-4.93A27.21,27.21,0,0,1,200.25,28a32.29,32.29,0,0,1,7.95.81,24,24,0,0,1,5.5,2.11l-1.92,6.23a40.89,40.89,0,0,0-5-1.84,20,20,0,0,0-5.58-.69,19.43,19.43,0,0,0-6.27,1,12.83,12.83,0,0,0-5.15,3.23,15.93,15.93,0,0,0-3.5,5.73A24.15,24.15,0,0,0,185,53a24.68,24.68,0,0,0,1.26,8.42,15.69,15.69,0,0,0,3.39,5.69,12.7,12.7,0,0,0,5,3.23A17.67,17.67,0,0,0,200.78,71.38Z"/><path class="cls-4" d="M238.12,28.77H246l18.85,48.46H256.2l-4.84-12.69h-19l-4.77,12.69h-8.54Zm-3.69,29.46h14.69l-2.84-7.85c-.88-2.15-1.63-4.16-2.27-6s-1.32-4-2-6.43h-.15q-1.15,3.39-2.16,6.27c-.67,1.93-1.43,4-2.31,6.27Z"/><path class="cls-4" d="M299.54,28.77v6.77H284.93V77.23H276.7V35.54H262.32V28.77Z"/><path class="cls-4" d="M339.31,28a31,31,0,0,1,13.84,2.92l-1.92,6.54a35.83,35.83,0,0,0-6-2.27,21.48,21.48,0,0,0-5.5-.73,10.76,10.76,0,0,0-6.54,1.77,5.78,5.78,0,0,0-2.38,4.92,5.51,5.51,0,0,0,1.85,4.39,17,17,0,0,0,6,2.92L343.46,50c4.21,1.33,7.28,3.19,9.24,5.58a12.72,12.72,0,0,1,2.92,8.27,13.42,13.42,0,0,1-1.23,5.77,12.65,12.65,0,0,1-3.5,4.46A16.75,16.75,0,0,1,345.38,77a23.3,23.3,0,0,1-7.15,1,42.05,42.05,0,0,1-7.81-.73,30.57,30.57,0,0,1-7.57-2.5l1.92-6.46a34.45,34.45,0,0,0,6.46,2.42,26.5,26.5,0,0,0,6.62.81,11.83,11.83,0,0,0,6.76-1.77,5.89,5.89,0,0,0,2.62-5.23,6.24,6.24,0,0,0-1.81-4.39c-1.2-1.28-3.55-2.48-7-3.61l-4.54-1.46a21.6,21.6,0,0,1-8.35-4.73c-2-2-3-4.73-3-8.27a13,13,0,0,1,4.31-10.23Q331.08,28,339.31,28Z"/><path class="cls-4" d="M365.18,77.23V28.77h8.23v20h21.46v-20h8.23V77.23h-8.23V55.54H373.41V77.23Z"/><path class="cls-4" d="M436.55,28a25.61,25.61,0,0,1,9.23,1.62,20,20,0,0,1,7.3,4.76,21.81,21.81,0,0,1,4.81,7.85A31.11,31.11,0,0,1,459.63,53a29.8,29.8,0,0,1-1.78,10.65,22.23,22.23,0,0,1-4.92,7.85,20.89,20.89,0,0,1-7.42,4.84,26.91,26.91,0,0,1-18.5,0,20,20,0,0,1-7.31-4.76,22.18,22.18,0,0,1-4.81-7.81A31.08,31.08,0,0,1,413.17,53a29.81,29.81,0,0,1,1.76-10.65,22.2,22.2,0,0,1,4.93-7.85,20.8,20.8,0,0,1,7.42-4.84A25.28,25.28,0,0,1,436.55,28ZM422,53a26.16,26.16,0,0,0,1.15,8.19A17.09,17.09,0,0,0,426.28,67a12.15,12.15,0,0,0,4.61,3.42,14.36,14.36,0,0,0,5.66,1.12,14,14,0,0,0,5.61-1.12,11.58,11.58,0,0,0,4.5-3.42,17.3,17.3,0,0,0,3-5.81A26.81,26.81,0,0,0,450.78,53a26.8,26.8,0,0,0-1.16-8.35,16.8,16.8,0,0,0-3.11-5.76,12,12,0,0,0-4.62-3.35,14.8,14.8,0,0,0-5.65-1.08,14.24,14.24,0,0,0-5.62,1.12,11.65,11.65,0,0,0-4.5,3.42,17.77,17.77,0,0,0-3,5.81A27.13,27.13,0,0,0,422,53Z"/><path class="cls-4" d="M469.69,28.77h15.84a23.65,23.65,0,0,1,7.12,1,15.92,15.92,0,0,1,5.45,2.88,13.13,13.13,0,0,1,3.55,4.62,14.81,14.81,0,0,1,1.26,6.27,15.53,15.53,0,0,1-1.38,6.81,12.89,12.89,0,0,1-3.84,4.76,16.81,16.81,0,0,1-5.81,2.81,27,27,0,0,1-7.27.93h-6.69V77.23h-8.23Zm8.23,23.54h4.38a27.48,27.48,0,0,0,4.81-.39,11,11,0,0,0,3.8-1.34A6.87,6.87,0,0,0,493.45,48a8.64,8.64,0,0,0,.92-4.27,8.41,8.41,0,0,0-.84-3.92,7.11,7.11,0,0,0-2.3-2.62,10.39,10.39,0,0,0-3.32-1.46,16.39,16.39,0,0,0-3.92-.46h-6.07Z"/></g></g></g></svg>