<svg enable-background="new 0 0 256 256" height="512" viewBox="0 0 256 256" width="512" xmlns="http://www.w3.org/2000/svg"><path d="m250.293 93.007-24.27 87.803c-1.198 4.334-5.142 7.336-9.639 7.336h-116.866l-58.144-107.803h199.28c6.608 0 11.399 6.295 9.639 12.664z" fill="#44c7b6"/><circle cx="198.044" cy="212.217" fill="#87828e" r="13.206"/><circle cx="143.744" cy="212.217" fill="#87828e" r="13.206"/><path d="m151.247 223.08c-2.12 1.48-4.71 2.34-7.5 2.34-7.3 0-13.21-5.91-13.21-13.2 0-7.3 5.91-13.21 13.21-13.21 2.79 0 5.38.86 7.5 2.34-3.45 2.37-5.71 6.36-5.71 10.87s2.26 8.49 5.71 10.86z" fill="#a4a4a5"/><path d="m205.548 223.085c-2.12 1.48-4.71 2.34-7.5 2.34-7.3 0-13.21-5.91-13.21-13.2 0-7.3 5.91-13.21 13.21-13.21 2.79 0 5.38.86 7.5 2.34-3.45 2.37-5.71 6.36-5.71 10.87.001 4.51 2.261 8.49 5.71 10.86z" fill="#a4a4a5"/><circle cx="136.997" cy="70.835" fill="#ffe2e2" r="40.259"/><path d="m177.257 70.83c0 22.24-18.03 40.26-40.26 40.26-2.56 0-5.07-.24-7.5-.7 18.65-3.51 32.76-19.88 32.76-39.56 0-19.67-14.11-36.04-32.76-39.55 2.43-.46 4.94-.7 7.5-.7 22.23 0 40.26 18.02 40.26 40.25z" fill="#ffcfcf"/><path d="m144.497 110.39c-2.43.46-4.94.7-7.5.7-22.23 0-40.26-18.02-40.26-40.26 0-22.23 18.03-40.25 40.26-40.25 2.56 0 5.07.24 7.5.7-18.65 3.51-32.76 19.88-32.76 39.55 0 19.68 14.11 36.05 32.76 39.56z" fill="#ffefee"/><path d="m160.827 85.7c0 1.93-.73 3.87-2.21 5.34l-1.42 1.41c-2.95 2.96-7.73 2.96-10.68 0l-.69-.69-8.51-8.5c-.18-.18-.47-.18-.65 0l-8.91 8.91c-1.72 1.72-4.09 2.71-6.5 2.45-2.95-.31-4.48-2.18-5.88-3.58-2.95-2.95-2.95-7.74 0-10.69l9.19-9.19c.18-.18.18-.47 0-.65l-8.88-8.88c-3.12-3.12-3.12-8.19 0-11.31l1.1-1.1c2.96-2.96 7.74-2.96 10.69 0l9.19 9.19c.18.18.47.18.65 0l8.88-8.88c3.13-3.12 8.19-3.12 11.32 0l.78.78c3.13 3.13 3.13 8.19 0 11.32l-8.88 8.88c-.18.18-.18.47 0 .65l9.2 9.19c1.48 1.48 2.21 3.42 2.21 5.35z" fill="#ff4a73"/><path d="m116.517 188.15h-17l-58.14-107.81h17z" fill="#4bdbc3"/><path d="m250.297 93.01-24.27 87.8c-1.2 4.33-5.15 7.34-9.64 7.34h-17c4.49 0 8.44-3.01 9.64-7.34l24.27-87.8c1.76-6.37-3.04-12.67-9.64-12.67h17c6.6 0 11.4 6.3 9.64 12.67z" fill="#3bb2a0"/><path d="m127.997 49.74v42.19l-.24.24c-1.72 1.72-4.09 2.71-6.5 2.45-2.95-.31-4.48-2.18-5.88-3.58-2.95-2.95-2.95-7.74 0-10.69l9.19-9.19c.18-.18.18-.47 0-.65l-8.88-8.88c-3.12-3.12-3.12-8.19 0-11.31l1.1-1.1c2.96-2.96 7.74-2.96 10.69 0z" fill="#f973a3"/><path d="m160.827 85.7c0 1.93-.73 3.87-2.21 5.34l-1.42 1.41c-2.95 2.96-7.73 2.96-10.68 0l-.69-.69v-41.86l.37-.37c3.13-3.12 8.19-3.12 11.32 0l.78.78c3.13 3.13 3.13 8.19 0 11.32l-8.88 8.88c-.18.18-.18.47 0 .65l9.2 9.19c1.48 1.48 2.21 3.42 2.21 5.35z" fill="#ea2a6a"/><g fill="#5f266d"><path d="m240.657 76.34h-59.75c3.346-26.327-17.31-49.76-43.91-49.76-26.635 0-47.251 23.469-43.91 49.76h-49.34c-14.71-27.296 8.457 15.628-11.621-21.564-.706-1.307-2.103-2.1-3.52-2.1h-18.271c-4.962 0-9 4.038-9 9v6.018c0 4.962 4.038 9 9 9h6.913c5.285 0 5.292-8 0-8h-6.913c-.551 0-1-.449-1-1v-6.018c0-.551.449-1 1-1h15.871l.002.004h.01c18.852 34.918 45.867 85.029 79.18 146.8 2.89 5.39 8.5 8.74 14.63 8.74h6.98c1.81 7.56 8.63 13.2 16.74 13.2 8.1 0 14.92-5.64 16.73-13.2h20.83c1.81 7.56 8.63 13.2 16.74 13.2 8.1 0 14.92-5.64 16.73-13.2h15.17c5.285 0 5.293-8 0-8h-15.17c-1.81-7.57-8.62-13.21-16.73-13.21s-14.93 5.64-16.74 13.21h-20.83c-1.81-7.57-8.62-13.21-16.73-13.21s-14.93 5.64-16.74 13.21h-6.98c-3.18 0-6.08-1.73-7.58-4.53l-6.23-11.54h110.17c6.27 0 11.82-4.23 13.49-10.27 1.858-6.716 22.906-82.884 24.27-87.81 2.48-8.935-4.258-17.73-13.491-17.73zm-106.12 135.88c0-5.027 4.089-9.21 9.21-9.21 5.061 0 9.2 4.115 9.2 9.21 0 5.022-4.081 9.2-9.2 9.2-5.107 0-9.21-4.158-9.21-9.2zm54.3 0c0-5.027 4.089-9.21 9.21-9.21 5.059 0 9.2 4.112 9.2 9.21 0 5.023-4.081 9.2-9.2 9.2-5.107 0-9.21-4.158-9.21-9.2zm51.82-127.88c3.966 0 6.837 3.794 5.78 7.6l-1.65 5.97h-13.62l-7.32-13.57zm-150.39 78.24-7.31-13.56h26.4l7.31 13.56h-26.39zm16.55-35.11h25.87l7.31 13.55h-25.87zm-39.8-8-7.31-13.56h26.39l7.32 13.56h-26.39zm28.17-13.56h14.85c4.45 3.42 9.56 6.02 15.1 7.57h.01l3.23 5.99h-25.87zm41.81-71.33c22.16 0 39.248 19.851 35.84 41.76-.42 2.78-1.17 5.46-2.2 8-5.356 13.365-18.313 22.75-33.64 22.75-18.349 0-33.253-13.628-35.84-30.75-3.406-21.899 13.668-41.76 35.84-41.76zm42.45 49.76 7.32 13.57h-14.78c3.12-4.03 5.57-8.61 7.16-13.57zm54.26 35.13h-26.22l-7.31-13.56h26.22zm-23.68 21.55h-25.96l-7.31-13.55h25.96zm-68.25-13.55h25.89l7.31 13.55h-25.89zm-6.7-12.42c7.752.369 15.83-1.405 23.02-5.32l5.25 9.74h-25.89zm63.32 4.42h-25.96l-7.31-13.56h25.96zm-79.95 29.55h25.86l7.32 13.56h-25.87zm34.95 0h25.89l7.32 13.56h-25.9zm34.98 0h25.97l7.31 13.56h-25.96zm39.84 8.86-4.78-8.86h7.22zm-9.1-16.86-7.31-13.55h24.81l-3.75 13.55zm21.06-26.42-4.69-8.69h7.09zm-25.42-30.26 7.32 13.57h-26.22l-7.32-13.57zm-119.91 0c1.59 4.96 4.04 9.54 7.16 13.57h-11.13l-7.32-13.57zm-20.38 0 7.32 13.57h-26.39l-7.32-13.57zm23.26 43.13 7.31 13.55h-26.39l-7.31-13.55zm4.18 56.68-7.32-13.57h26.4l7.32 13.57zm35.49 0-7.32-13.57h25.86l7.32 13.57zm34.95 0-7.32-13.57h25.9l7.32 13.57zm49.82-4.4c-.72 2.59-3.09 4.4-5.78 4.4h-9.05l-7.32-13.57h24.68z"/><path d="m130.587 95 6.41-6.41 6.69 6.69c10.857 10.857 28.72-6.789 17.76-17.75-1.842-1.842-.865-.865-6.7-6.7l6.38-6.37c11.379-11.379-6.586-28.948-17.75-17.76l-6.38 6.38-6.69-6.69c-11.111-11.111-28.585 6.925-17.44 18.07l6.37 6.37c-6.236 6.247-5.164 5.174-6.69 6.7-10.704 10.704 6.314 29.107 18.04 17.47zm-3.19-27.32c-6.709-6.709-8.948-8.707-9.689-10.032-1.918-3.428 3.683-8.84 6.939-5.608l9.19 9.19c1.723 1.743 4.569 1.751 6.31.01l8.88-8.88c3.6-3.6 9.32 1.946 7.156 5.453-.844 1.368-3.187 3.458-9.596 9.867-1.73 1.74-1.73 4.57.01 6.31 3.496 3.496 5.258 5.258 9.19 9.19 3.467 3.573-3.008 9.881-6.44 6.45 0 0 0 0 0-.01-1.865-1.865-7.335-7.325-9.2-9.19-1.755-1.755-4.598-1.712-6.31 0-7.849 7.848-9.395 9.799-10.981 10.158-2.826.639-6.604-3.417-5.419-6.248 0 0 6.316-6.707 9.96-10.35 1.74-1.74 1.74-4.57 0-6.31z"/></g></svg>