<?xml version="1.0" encoding="utf-8"?>
<!-- Generator: Adobe Illustrator 24.0.2, SVG Export Plug-In . SVG Version: 6.00 Build 0)  -->
<svg version="1.1" id="Lager_1" xmlns="http://www.w3.org/2000/svg" xmlns:xlink="http://www.w3.org/1999/xlink" x="0px" y="0px"
	 viewBox="0 0 533.8 106.1" style="enable-background:new 0 0 533.8 106.1;" xml:space="preserve">
<style type="text/css">
	.st0{fill:#4BDBC3;}
	.st1{fill:#44C7B6;}
	.st2{fill:#2E3131;}
</style>
<title>logo</title>
<path class="st0" d="M104.3,0.1c-11.6,0-22.4,5.7-29,15.2c0,0-2.2,3.2-5.5,3.2s-5.5-3.2-5.5-3.2c-11-16-32.8-20.2-48.9-9.2
	C1.7,15.4-3.6,33,2.6,48.3c6.8,21,29.8,44.7,47.9,57.8c0.6-7,0.6-14,0-21c-2.1-3.1-5.7-4.7-9.3-4.1l1-1.3l-3.5-0.2l2.4-3h-2.4l2-2.4
	l-5.1-0.9l2.1-1.6L35.8,70c2.7-0.9,4.4-3.6,4.1-6.4c-0.2-3.7-0.2-7.9,1.2-11.6c0.5-1.4-1.4-20.5,0-22.6c1.5-2.4,15.2,10.8,15.2,10.8
	s2.8-3,13.9-3s13.9,3,13.9,3s13.6-13.1,15.2-10.8c0.2,0.5,0.4,1.1,0.4,1.7l24.7-24.8C118.6,2.3,111.5,0.1,104.3,0.1z"/>
<path class="st1" d="M139.4,33.3v-0.6c0-0.5-0.1-0.9-0.1-1.4l-0.1-0.7c-0.1-0.5-0.1-0.9-0.2-1.4c0-0.2-0.1-0.4-0.1-0.6
	c-0.1-0.6-0.2-1.1-0.4-1.7c0-0.1,0-0.2-0.1-0.2c-0.2-0.7-0.4-1.3-0.6-1.9c0-0.1-0.1-0.2-0.1-0.3c-0.2-0.5-0.4-1-0.6-1.6l-0.2-0.5
	c-0.2-0.5-0.4-1-0.6-1.4c-0.1-0.1-0.1-0.3-0.2-0.4c-0.2-0.5-0.5-1.1-0.8-1.6l-0.1-0.1c-0.6-1.2-1.4-2.4-2.1-3.5l-0.1-0.1
	c-0.4-0.5-0.7-1-1.1-1.5l-0.1-0.2c-1.7-2.1-3.6-4.1-5.8-5.8l0,0c-0.5-0.4-1.1-0.8-1.6-1.2l0,0L99.7,31.2c0.4,4.3-0.4,14.7-0.5,19
	v1.7c0,0.1,0,0.1,0,0.2c1.4,3.7,1.4,7.8,1.2,11.6c-0.3,2.8,1.4,5.5,4.1,6.4l-1.7,1.7l2.1,1.6l-5.1,0.9l2,2.4h-2.3l2.4,2.9l-3.4,0.2
	l0.9,1.3c-3.6-0.5-7.3,1.1-9.3,4.1c-0.6,6.8-0.6,13.7,0,20.5c17.9-13.2,40.4-36.5,47.1-57.2c1.7-4.1,2.5-8.5,2.5-13
	C139.5,34.6,139.5,34,139.4,33.3z"/>
<path class="st2" d="M187.4,75.1c-3.6-2-6.5-5-8.3-8.7c-2-4.1-3-8.7-2.9-13.3c-0.1-4.6,0.9-9.1,2.9-13.2c1.8-3.7,4.7-6.7,8.3-8.7
	c9-4.7,19.9-3.9,28.2,1.9c0.6,0.4,1.1,1,1.5,1.7c0.3,0.6,0.4,1.4,0.4,2.1c0,1.1-0.3,2.2-1,3.1c-0.6,0.8-1.5,1.3-2.5,1.3
	c-0.6,0-1.1-0.1-1.7-0.2c-0.6-0.2-1.1-0.5-1.6-0.9c-1.6-1.1-3.3-1.9-5.1-2.6c-1.6-0.5-3.3-0.8-5-0.8c-4.4,0-7.8,1.4-10,4.1
	c-2.2,2.7-3.4,6.8-3.4,12.3c0,11,4.5,16.5,13.4,16.5c1.6,0,3.3-0.3,4.8-0.8c1.9-0.7,3.6-1.6,5.3-2.6c0.5-0.3,1.1-0.6,1.7-0.9
	c0.5-0.2,1.1-0.2,1.6-0.2c1,0,1.9,0.5,2.5,1.3c0.7,0.9,1,2,1,3.1c0,0.7-0.1,1.5-0.4,2.1c-0.4,0.6-0.8,1.2-1.4,1.6
	C207.4,79,196.5,79.8,187.4,75.1L187.4,75.1z"/>
<path class="st2" d="M272.8,73.1c0,1.3-0.6,2.5-1.5,3.3c-1,0.9-2.3,1.4-3.6,1.3c-0.9,0-1.7-0.3-2.5-0.7c-0.8-0.5-1.4-1.3-1.8-2.2
	l-3.7-8.2h-23.4l-3.7,8.2c-0.4,0.9-1,1.7-1.8,2.2c-0.8,0.5-1.6,0.7-2.5,0.7c-1.3,0-2.6-0.5-3.6-1.3c-1-0.8-1.6-2-1.6-3.3
	c0-0.8,0.2-1.5,0.6-2.2l18.7-39.2c0.5-1.1,1.3-2,2.3-2.5c2-1.2,4.5-1.2,6.6,0c1,0.6,1.8,1.5,2.4,2.5l18.7,39.2
	C272.6,71.6,272.8,72.4,272.8,73.1z M240,58.5h16.1l-8-18L240,58.5z"/>
<path class="st2" d="M287,76.4c-1-1-1.6-2.4-1.5-3.9v-35h-11.2c-3.4,0-5.1-1.5-5.1-4.4s1.7-4.4,5.1-4.4h33.2c3.4,0,5.1,1.5,5.1,4.4
	c0,2.9-1.7,4.4-5.1,4.4h-11.2v35c0.1,1.4-0.5,2.8-1.5,3.9C292.6,78.3,289.3,78.3,287,76.4L287,76.4z"/>
<path class="st2" d="M345.3,76.8c-2.8-0.7-5.4-1.9-7.7-3.6c-2.1-1.6-2.6-4.5-1-6.7c0-0.1,0.1-0.1,0.1-0.2c0.6-0.8,1.5-1.3,2.5-1.3
	c0.5,0,1,0.1,1.5,0.2c0.6,0.2,1.2,0.5,1.8,0.9c1.9,1.2,3.9,2.1,6,2.7c2.2,0.6,4.4,0.9,6.7,0.9c3,0,5.4-0.5,7-1.5
	c1.5-0.9,2.5-2.6,2.4-4.4c0-1.5-0.9-2.8-2.2-3.5c-2.5-1.2-5.2-2.1-8-2.5c-3.5-0.6-7-1.7-10.3-3.2c-2.3-1-4.2-2.6-5.6-4.6
	c-1.2-2-1.8-4.4-1.8-6.7c0-2.8,0.9-5.6,2.5-7.8c1.8-2.4,4.2-4.3,7-5.5c3.2-1.4,6.6-2.1,10.1-2c6.5,0,11.9,1.6,16.2,4.9
	c0.6,0.5,1.1,1,1.5,1.7c0.3,0.7,0.5,1.4,0.5,2.1c0,1.1-0.4,2.2-1.1,3c-0.6,0.8-1.5,1.3-2.5,1.3c-0.5,0-1-0.1-1.4-0.2
	c-0.6-0.2-1.3-0.5-1.8-0.9c-1.6-1.1-3.4-2-5.2-2.7c-1.9-0.6-4-0.9-6-0.9c-2.3-0.1-4.6,0.4-6.6,1.6c-1.5,0.9-2.5,2.6-2.4,4.5
	c0,1,0.3,2,0.9,2.7c0.9,0.9,1.9,1.5,3.1,1.9c2,0.7,4.1,1.3,6.2,1.7c6.2,1.4,10.7,3.2,13.5,5.4c2.7,2.1,4.3,5.5,4.1,8.9
	c0,2.8-0.8,5.5-2.4,7.8c-1.8,2.4-4.2,4.2-6.9,5.3c-3.3,1.3-6.8,1.9-10.3,1.9C352.1,78.2,348.7,77.7,345.3,76.8z"/>
<path class="st2" d="M426.6,29.8c1,1,1.5,2.4,1.5,3.9v38.8c0.1,1.4-0.5,2.9-1.5,3.9c-1,1-2.4,1.6-3.9,1.5c-1.4,0.1-2.8-0.5-3.8-1.4
	c-1-1.1-1.5-2.5-1.4-4V57H395v15.5c0.1,1.4-0.5,2.9-1.5,3.9c-1,1-2.4,1.5-3.8,1.5c-1.4,0.1-2.8-0.5-3.9-1.4c-1-1.1-1.5-2.5-1.5-4
	V33.7c-0.2-2.8,1.9-5.1,4.7-5.3c0.2,0,0.4,0,0.7,0c1.4-0.1,2.8,0.5,3.8,1.5c1,1,1.5,2.4,1.4,3.9v14.7h22.5V33.7
	c-0.1-1.4,0.4-2.8,1.4-3.9c1-1,2.4-1.5,3.8-1.5C424.2,28.3,425.6,28.8,426.6,29.8z"/>
<path class="st2" d="M448.8,75c-3.6-2-6.4-5.1-8.3-8.7c-2-4.1-3-8.7-2.9-13.2c-0.1-4.6,0.9-9.1,2.9-13.2c1.8-3.7,4.7-6.7,8.3-8.7
	c7.9-4.1,17.3-4.1,25.2,0c3.6,2,6.4,5,8.3,8.7c2,4.1,3,8.7,2.9,13.2c0.1,4.6-0.9,9.1-2.9,13.2c-1.8,3.7-4.7,6.7-8.3,8.7
	C466.1,79.2,456.7,79.2,448.8,75z M471,65.5c2.3-2.9,3.5-7,3.5-12.4s-1.2-9.5-3.5-12.3c-2.4-2.9-5.9-4.4-9.6-4.3
	c-3.7-0.2-7.2,1.4-9.6,4.3c-2.3,2.8-3.4,7-3.4,12.3c0,5.4,1.1,9.5,3.5,12.4c4.7,5.3,12.8,5.8,18.1,1C470.3,66.2,470.7,65.8,471,65.5
	z"/>
<path class="st2" d="M496,76.5c-1-1.1-1.5-2.5-1.5-4V33.8c-0.3-2.5,1.5-4.8,4.1-5c0.3,0,0.7,0,1,0H517c5.3,0,9.4,1.3,12.4,4
	c3,2.7,4.4,6.4,4.4,11.3c0,4.8-1.5,8.5-4.4,11.2s-7.1,4-12.4,4h-11.6v13.3c-0.1,3.1-2.6,5.5-5.7,5.4C498.3,77.9,497,77.4,496,76.5
	L496,76.5z M523.7,44c0-4.7-2.7-7.1-8.1-7.1h-10.2V51h10.2C521,51,523.7,48.7,523.7,44z"/>
</svg>
